<svg width="393" height="410" viewBox="0 0 393 410" fill="none" xmlns="http://www.w3.org/2000/svg">
<path d="M330.743 213.275H62.2012V326.399H330.743V213.275Z" fill="#38BFF2" stroke="#263238" stroke-linecap="round" stroke-linejoin="round"/>
<path d="M93.0751 220.122H67.8124V234.106H93.0751V220.122Z" fill="white" stroke="#263238" stroke-miterlimit="10"/>
<path d="M324.526 288.31H284.734V302.295H324.526V288.31Z" fill="white" stroke="#263238" stroke-miterlimit="10"/>
<path d="M324.538 237.588H299.974V251.573H324.538V237.588Z" fill="white" stroke="#263238" stroke-miterlimit="10"/>
<path d="M93.0751 271.065H67.8124V285.05H93.0751V271.065Z" fill="white" stroke="#263238" stroke-miterlimit="10"/>
<path d="M88.2671 254.216H67.8124V268.201H88.2671V254.216Z" fill="white" stroke="#263238" stroke-miterlimit="10"/>
<path d="M81.7942 237.169H67.8124V251.154H81.7942V237.169Z" fill="white" stroke="#263238" stroke-miterlimit="10"/>
<path d="M99.6527 237.169H85.6709V251.154H99.6527V237.169Z" fill="white" stroke="#263238" stroke-miterlimit="10"/>
<path d="M117.5 237.169H103.518V251.154H117.5V237.169Z" fill="white" stroke="#263238" stroke-miterlimit="10"/>
<path d="M135.347 237.169H121.365V251.154H135.347V237.169Z" fill="white" stroke="#263238" stroke-miterlimit="10"/>
<path d="M153.205 237.169H139.223V251.154H153.205V237.169Z" fill="white" stroke="#263238" stroke-miterlimit="10"/>
<path d="M171.052 237.169H157.07V251.154H171.052V237.169Z" fill="white" stroke="#263238" stroke-miterlimit="10"/>
<path d="M188.899 237.169H174.917V251.154H188.899V237.169Z" fill="white" stroke="#263238" stroke-miterlimit="10"/>
<path d="M206.758 237.169H192.776V251.154H206.758V237.169Z" fill="white" stroke="#263238" stroke-miterlimit="10"/>
<path d="M224.605 237.169H210.623V251.154H224.605V237.169Z" fill="white" stroke="#263238" stroke-miterlimit="10"/>
<path d="M242.463 237.169H228.481V251.154H242.463V237.169Z" fill="white" stroke="#263238" stroke-miterlimit="10"/>
<path d="M260.31 237.169H246.328V251.154H260.31V237.169Z" fill="white" stroke="#263238" stroke-miterlimit="10"/>
<path d="M278.157 237.169H264.175V251.154H278.157V237.169Z" fill="white" stroke="#263238" stroke-miterlimit="10"/>
<path d="M296.015 237.169H282.033V251.154H296.015V237.169Z" fill="white" stroke="#263238" stroke-miterlimit="10"/>
<path d="M81.7942 305.555H67.8124V319.54H81.7942V305.555Z" fill="white" stroke="#263238" stroke-miterlimit="10"/>
<path d="M99.6527 305.555H85.6709V319.54H99.6527V305.555Z" fill="white" stroke="#263238" stroke-miterlimit="10"/>
<path d="M117.5 305.555H103.518V319.54H117.5V305.555Z" fill="white" stroke="#263238" stroke-miterlimit="10"/>
<path d="M138.432 305.555H121.365V319.54H138.432V305.555Z" fill="white" stroke="#263238" stroke-miterlimit="10"/>
<path d="M227.69 305.555H142.297V319.54H227.69V305.555Z" fill="white" stroke="#263238" stroke-miterlimit="10"/>
<path d="M288.227 305.555H274.245V319.54H288.227V305.555Z" fill="white" stroke="#263238" stroke-miterlimit="10"/>
<path d="M306.109 305.555H292.127V319.54H306.109V305.555Z" fill="white" stroke="#263238" stroke-miterlimit="10"/>
<path d="M252.894 305.555H231.182V319.54H252.894V305.555Z" fill="white" stroke="#263238" stroke-miterlimit="10"/>
<path d="M324.526 305.555H310.545V319.54H324.526V305.555Z" fill="white" stroke="#263238" stroke-miterlimit="10"/>
<path d="M106.219 254.216H92.2368V268.201H106.219V254.216Z" fill="white" stroke="#263238" stroke-miterlimit="10"/>
<path d="M124.066 254.216H110.084V268.201H124.066V254.216Z" fill="white" stroke="#263238" stroke-miterlimit="10"/>
<path d="M141.924 254.216H127.942V268.201H141.924V254.216Z" fill="white" stroke="#263238" stroke-miterlimit="10"/>
<path d="M159.771 254.216H145.789V268.201H159.771V254.216Z" fill="white" stroke="#263238" stroke-miterlimit="10"/>
<path d="M177.63 254.216H163.648V268.201H177.63V254.216Z" fill="white" stroke="#263238" stroke-miterlimit="10"/>
<path d="M195.477 254.216H181.495V268.201H195.477V254.216Z" fill="white" stroke="#263238" stroke-miterlimit="10"/>
<path d="M213.324 254.216H199.342V268.201H213.324V254.216Z" fill="white" stroke="#263238" stroke-miterlimit="10"/>
<path d="M231.182 254.216H217.2V268.201H231.182V254.216Z" fill="white" stroke="#263238" stroke-miterlimit="10"/>
<path d="M249.029 254.216H235.047V268.201H249.029V254.216Z" fill="white" stroke="#263238" stroke-miterlimit="10"/>
<path d="M266.876 254.216H252.894V268.201H266.876V254.216Z" fill="white" stroke="#263238" stroke-miterlimit="10"/>
<path d="M284.735 254.216H270.753V268.201H284.735V254.216Z" fill="white" stroke="#263238" stroke-miterlimit="10"/>
<path d="M302.581 254.216H288.599V268.201H302.581V254.216Z" fill="white" stroke="#263238" stroke-miterlimit="10"/>
<path d="M324.526 254.216V285.26H310.544V268.201H306.446V254.216H324.526Z" fill="white" stroke="#263238" stroke-miterlimit="10"/>
<path d="M110.317 271.263H96.3351V285.248H110.317V271.263Z" fill="white" stroke="#263238" stroke-miterlimit="10"/>
<path d="M128.163 271.263H114.182V285.248H128.163V271.263Z" fill="white" stroke="#263238" stroke-miterlimit="10"/>
<path d="M146.011 271.263H132.029V285.248H146.011V271.263Z" fill="white" stroke="#263238" stroke-miterlimit="10"/>
<path d="M163.869 271.263H149.888V285.248H163.869V271.263Z" fill="white" stroke="#263238" stroke-miterlimit="10"/>
<path d="M181.716 271.263H167.734V285.248H181.716V271.263Z" fill="white" stroke="#263238" stroke-miterlimit="10"/>
<path d="M199.574 271.263H185.593V285.248H199.574V271.263Z" fill="white" stroke="#263238" stroke-miterlimit="10"/>
<path d="M217.421 271.263H203.44V285.248H217.421V271.263Z" fill="white" stroke="#263238" stroke-miterlimit="10"/>
<path d="M235.268 271.263H221.287V285.248H235.268V271.263Z" fill="white" stroke="#263238" stroke-miterlimit="10"/>
<path d="M253.127 271.263H239.146V285.248H253.127V271.263Z" fill="white" stroke="#263238" stroke-miterlimit="10"/>
<path d="M270.974 271.263H256.992V285.248H270.974V271.263Z" fill="white" stroke="#263238" stroke-miterlimit="10"/>
<path d="M288.821 271.263H274.839V285.248H288.821V271.263Z" fill="white" stroke="#263238" stroke-miterlimit="10"/>
<path d="M306.679 271.263H292.698V285.248H306.679V271.263Z" fill="white" stroke="#263238" stroke-miterlimit="10"/>
<path d="M102.726 288.31H88.7444V302.295H102.726V288.31Z" fill="white" stroke="#263238" stroke-miterlimit="10"/>
<path d="M120.573 288.31H106.591V302.295H120.573V288.31Z" fill="white" stroke="#263238" stroke-miterlimit="10"/>
<path d="M138.432 288.31H124.45V302.295H138.432V288.31Z" fill="white" stroke="#263238" stroke-miterlimit="10"/>
<path d="M156.279 288.31H142.297V302.295H156.279V288.31Z" fill="white" stroke="#263238" stroke-miterlimit="10"/>
<path d="M174.137 288.31H160.155V302.295H174.137V288.31Z" fill="white" stroke="#263238" stroke-miterlimit="10"/>
<path d="M191.984 288.31H178.002V302.295H191.984V288.31Z" fill="white" stroke="#263238" stroke-miterlimit="10"/>
<path d="M209.831 288.31H195.849V302.295H209.831V288.31Z" fill="white" stroke="#263238" stroke-miterlimit="10"/>
<path d="M227.69 288.31H213.708V302.295H227.69V288.31Z" fill="white" stroke="#263238" stroke-miterlimit="10"/>
<path d="M245.537 288.31H231.555V302.295H245.537V288.31Z" fill="white" stroke="#263238" stroke-miterlimit="10"/>
<path d="M263.383 288.31H249.401V302.295H263.383V288.31Z" fill="white" stroke="#263238" stroke-miterlimit="10"/>
<path d="M281.242 288.31H267.26V302.295H281.242V288.31Z" fill="white" stroke="#263238" stroke-miterlimit="10"/>
<path d="M110.317 220.96H96.3351V234.945H110.317V220.96Z" fill="white" stroke="#263238" stroke-miterlimit="10"/>
<path d="M128.163 220.96H114.182V234.945H128.163V220.96Z" fill="white" stroke="#263238" stroke-miterlimit="10"/>
<path d="M146.011 220.96H132.029V234.945H146.011V220.96Z" fill="white" stroke="#263238" stroke-miterlimit="10"/>
<path d="M163.869 220.96H149.888V234.945H163.869V220.96Z" fill="white" stroke="#263238" stroke-miterlimit="10"/>
<path d="M181.716 220.96H167.734V234.945H181.716V220.96Z" fill="white" stroke="#263238" stroke-miterlimit="10"/>
<path d="M199.574 220.96H185.593V234.945H199.574V220.96Z" fill="white" stroke="#263238" stroke-miterlimit="10"/>
<path d="M217.421 220.96H203.44V234.945H217.421V220.96Z" fill="white" stroke="#263238" stroke-miterlimit="10"/>
<path d="M235.268 220.96H221.287V234.945H235.268V220.96Z" fill="white" stroke="#263238" stroke-miterlimit="10"/>
<path d="M253.127 220.96H239.146V234.945H253.127V220.96Z" fill="white" stroke="#263238" stroke-miterlimit="10"/>
<path d="M270.974 220.96H256.992V234.945H270.974V220.96Z" fill="white" stroke="#263238" stroke-miterlimit="10"/>
<path d="M288.821 220.96H274.839V234.945H288.821V220.96Z" fill="white" stroke="#263238" stroke-miterlimit="10"/>
<path d="M306.679 220.96H292.698V234.945H306.679V220.96Z" fill="white" stroke="#263238" stroke-miterlimit="10"/>
<path d="M324.526 220.96H310.545V234.945H324.526V220.96Z" fill="white" stroke="#263238" stroke-miterlimit="10"/>
<path d="M84.7512 288.31H67.8124V302.295H84.7512V288.31Z" fill="white" stroke="#263238" stroke-miterlimit="10"/>
<path d="M62.2012 213.997L67.8125 212.122H327.099L330.79 213.973L62.2012 213.997Z" fill="#263238"/>
<path d="M297.354 348.022L297.494 296.543C298.053 294.47 298.507 286.832 299.694 281.51C301.72 272.591 293.757 261.831 293.198 261.482C290.963 260.085 286.213 260.108 286.213 260.108C286.213 260.108 281.556 254.798 277.4 253.121C274.544 252.107 271.5 251.73 268.483 252.015C265.282 249.372 261.713 247.211 257.889 245.599C256.391 245.033 254.768 244.89 253.195 245.186C251.622 245.482 250.16 246.205 248.971 247.276L243.732 255.427C242.967 256.584 242.62 257.967 242.749 259.348C242.878 260.729 243.476 262.025 244.442 263.019C246.934 265.464 250.124 264.323 251.73 264.323C253.954 264.323 254.792 261.808 254.792 261.808C254.792 261.808 255.339 274.908 254.792 276.585C254.221 278.25 250.054 282.151 250.054 282.151L236.083 263.718C231.288 257.209 227.091 250.28 223.545 243.014C223.141 242.128 222.612 241.305 221.974 240.569C219.529 237.809 214.302 236.994 212.94 242.118C212.605 243.756 212.681 245.453 213.161 247.055C218.982 264.265 226.409 277.272 233.173 290.826C237.189 298.872 235.699 298.779 237.702 302.412C237.469 302.575 237.585 302.877 237.329 303.029C236.351 306.941 235.664 310.865 234.675 314.778C233.855 309.866 232.354 305.092 230.216 300.595C230.781 297.87 230.988 295.083 230.833 292.304C230.658 289.497 229.407 286.865 227.34 284.957C226.183 284.021 224.763 283.467 223.277 283.373C222.213 283.304 221.162 283.638 220.334 284.309C219.505 284.98 218.96 285.939 218.807 286.995C218.575 289.124 218.186 291.234 217.643 293.306C216.753 296.011 215.679 298.653 214.43 301.212C214.43 306.417 217.643 305.567 219.983 326.457C221.799 342.759 242.754 353.483 254.163 365.232L267.675 405.153C284.675 397.153 291.675 393.153 306.175 382.153L297.354 348.022Z" fill="white"/>
<path d="M227.631 319.843C227.771 319.587 227.887 319.331 228.004 319.063C227.88 319.15 227.781 319.268 227.716 319.404C227.65 319.541 227.621 319.692 227.631 319.843Z" fill="#92E3A9"/>
<path d="M261.194 247.812C259.597 246.563 257.697 245.759 255.688 245.483L261.194 247.812Z" fill="#92E3A9"/>
<path d="M254.99 253.261L255.059 253.843C255.1 253.647 255.076 253.442 254.99 253.261Z" fill="#92E3A9"/>
<g opacity="0.5">
<path opacity="0.5" d="M227.631 319.843C227.771 319.587 227.887 319.331 228.004 319.063C227.88 319.15 227.781 319.268 227.716 319.404C227.65 319.541 227.621 319.692 227.631 319.843Z" fill="white"/>
<path opacity="0.5" d="M261.194 247.812C259.597 246.563 257.697 245.759 255.688 245.483L261.194 247.812Z" fill="white"/>
<path opacity="0.5" d="M254.989 253.261L255.059 253.843C255.1 253.647 255.075 253.442 254.989 253.261Z" fill="white"/>
<path opacity="0.5" d="M261.404 303.762C260.88 302.458 258.342 298.709 256.864 301.305L261.404 303.762Z" fill="white"/>
</g>
<path d="M218.12 297.498C216.767 298.564 215.612 299.861 214.709 301.329L218.12 297.498Z" fill="white"/>
<path d="M267.675 405.153L254.28 365.197C242.871 353.448 221.915 342.701 220.099 326.422C217.771 305.532 214.546 306.382 214.546 301.177C215.796 298.618 216.869 295.976 217.759 293.271C218.302 291.199 218.691 289.089 218.923 286.96C219.076 285.904 219.622 284.945 220.45 284.274C221.279 283.603 222.33 283.269 223.394 283.338C224.88 283.432 226.299 283.986 227.457 284.922C229.524 286.83 230.775 289.462 230.95 292.269C231.105 295.048 230.897 297.835 230.332 300.56C232.471 305.057 233.971 309.831 234.791 314.743C235.781 310.83 236.468 306.906 237.446 302.994C237.702 302.842 237.585 302.54 237.818 302.377C235.816 298.744 237.306 298.883 233.29 290.791C226.526 277.237 219.11 264.23 213.277 247.02C212.797 245.418 212.721 243.721 213.056 242.083C214.418 236.959 219.645 237.774 222.09 240.534C222.728 241.27 223.257 242.093 223.662 242.979C227.208 250.245 231.404 257.174 236.2 263.683L250.17 282.116C250.17 282.116 254.338 278.215 254.908 276.55C255.456 274.873 254.908 261.773 254.908 261.773C254.908 261.773 254.07 264.288 251.847 264.288C250.24 264.288 247.05 265.453 244.559 262.984C243.583 262.006 242.969 260.725 242.819 259.351C242.668 257.977 242.991 256.593 243.732 255.427L248.936 247.276C250.126 246.205 251.587 245.482 253.16 245.186C254.733 244.89 256.357 245.033 257.854 245.599C261.679 247.211 265.248 249.372 268.448 252.015C271.465 251.73 274.509 252.107 277.365 253.121C281.556 254.81 286.178 260.108 286.178 260.108C286.178 260.108 290.917 260.108 293.163 261.482C293.722 261.831 301.685 272.591 299.66 281.51C298.495 286.832 298.018 294.47 297.459 296.543L297.32 348.022L306.675 382.153" stroke="#263238" stroke-miterlimit="10"/>
<path d="M269.763 253.832C271.813 261.427 272.877 269.254 272.93 277.12C272.864 278.438 273.005 279.759 273.349 281.033C273.529 281.666 273.869 282.243 274.336 282.708C274.803 283.172 275.381 283.51 276.015 283.688" stroke="#263238" stroke-miterlimit="10"/>
<path d="M286.225 261.482C289.718 268.771 286.143 285.05 286.4 286.203C286.509 286.782 286.742 287.331 287.081 287.813C287.42 288.295 287.859 288.699 288.367 288.997" stroke="#263238" stroke-miterlimit="10"/>
<path d="M256.212 252.83C255.805 255.159 255.467 257.837 255.048 260.155C253.693 258.988 252.583 257.564 251.784 255.965C250.985 254.365 250.511 252.623 250.391 250.839" stroke="#263238" stroke-miterlimit="10"/>
<path d="M233.906 314.964L231.391 316.07" stroke="#263238" stroke-miterlimit="10"/>
<path d="M234.547 316.979C234.145 318.922 234.145 320.927 234.547 322.871" stroke="#263238" stroke-miterlimit="10"/>
<path d="M249.262 295.215L252.044 300.234" stroke="#263238" stroke-miterlimit="10"/>
<path d="M254.617 276.852L257.388 272.94" stroke="#263238" stroke-miterlimit="10"/>
<path d="M293.582 295.215L292.744 298.289" stroke="#263238" stroke-miterlimit="10"/>
<path d="M286.807 286.866C287.583 284.258 288.402 281.65 289.263 279.042" stroke="#263238" stroke-miterlimit="10"/>
<path d="M294.956 272.952C295.692 272.566 296.552 272.487 297.346 272.734C298.141 272.981 298.805 273.532 299.193 274.267" stroke="#263238" stroke-miterlimit="10"/>
<path d="M278.273 259.584C279.24 259.313 280.258 259.288 281.236 259.512C282.214 259.735 283.121 260.201 283.873 260.865" stroke="#263238" stroke-miterlimit="10"/>
<path d="M226.421 267.351C227.324 266.36 228.449 265.597 229.703 265.123C230.957 264.65 232.306 264.479 233.638 264.626" stroke="#263238" stroke-miterlimit="10"/>
<path d="M215.908 245.39C216.74 244.789 217.683 244.359 218.681 244.123C219.68 243.888 220.716 243.851 221.729 244.016" stroke="#263238" stroke-miterlimit="10"/>
<path d="M218.12 297.498C216.767 298.564 215.612 299.861 214.709 301.329" stroke="#263238" stroke-miterlimit="10"/>
<path d="M219.191 292.2C221.031 290.895 223.964 293.83 225.652 292.328C225.951 291.99 226.161 291.583 226.26 291.143C226.36 290.704 226.347 290.246 226.223 289.813C225.974 288.946 225.86 288.047 225.885 287.146" stroke="#263238" stroke-miterlimit="10"/>
<path d="M271.102 284.13C273.342 288.781 273.798 294.093 272.382 299.058" stroke="#263238" stroke-miterlimit="10"/>
<path d="M284.63 291.315C284.992 293.516 284.58 295.775 283.465 297.707" stroke="#263238" stroke-miterlimit="10"/>
<path d="M167.623 290.661C167.123 288.332 163.851 288.693 163.851 288.693C152.85 289.333 151.371 306.578 151.371 306.578L147.425 318.397L146.261 300.628L146.377 277.724C146.377 277.724 149.707 255.809 148.228 252.374C147.89 251.427 147.276 250.603 146.464 250.009C145.653 249.415 144.681 249.079 143.676 249.044C137.273 247.437 136.901 256.671 136.901 256.671L131.499 275.512L129.217 295.831L127.378 294.841C127.378 294.841 126.504 273.287 126.877 272.926C127.25 272.566 129.462 258.022 129.462 258.022C129.462 258.022 130.626 255.32 132.174 251.874C132.612 250.906 132.838 249.856 132.838 248.794C132.838 247.732 132.612 246.682 132.174 245.714C129.578 240.416 124.176 242.884 123.059 245.714C121.746 248.588 120.269 251.383 118.635 254.086L112.464 270.959C112.697 274.778 110.509 293.607 110.509 293.607L108.285 292.605L104.711 281.543L107.435 270.213C107.435 270.213 113.384 263.693 112.348 259.85C111.312 256.007 106.318 257.149 106.318 257.149L96.2358 269.2H93.2671L86.282 278.073C83.1112 287.59 82.5444 297.782 84.6405 307.591L86.2471 315.079V363.484C86.2471 363.484 81.4623 371.239 81.4623 371.973C81.4623 372.31 76.9339 380.526 74.1748 388.153C86.197 396.014 99.1748 402.653 114.675 409.153C119.087 396.729 126.609 379.751 129.462 376.654C135.119 370.494 146.202 358.675 146.202 358.675C146.202 358.675 158.787 338.449 160.266 331.718C161.43 326.199 164.434 316.185 165.458 312.75C165.696 311.97 165.791 311.153 165.737 310.339C165.656 308.523 165.481 304.995 165.481 301.886C165.481 297.391 168.101 292.955 167.623 290.661Z" fill="white"/>
<path d="M74.1748 388.153C77.6748 380.153 82.5858 368.993 82.5858 368.656C82.5858 367.922 87.3706 360.167 87.3706 360.167V311.774L85.764 304.333C83.6693 294.549 84.2239 284.383 87.3706 274.885L94.3556 266.012H97.3243L107.406 253.96C107.406 253.96 112.459 252.795 113.437 256.661C114.415 260.527 108.524 267.001 108.524 267.001L105.8 278.331L109.374 289.393L111.597 290.395C111.597 290.395 113.786 271.566 113.553 267.747L119.723 250.874C121.358 248.171 122.835 245.376 124.147 242.502C125.311 239.672 130.666 237.204 133.263 242.502C133.7 243.47 133.926 244.52 133.926 245.582C133.926 246.644 133.7 247.694 133.263 248.662C131.772 252.155 130.55 254.81 130.55 254.81C130.55 254.81 128.338 269.342 127.966 269.715C127.593 270.087 128.466 291.629 128.466 291.629L130.306 292.619L132.529 272.3L137.931 253.459C137.931 253.459 138.304 244.225 144.707 245.832C145.712 245.867 146.683 246.203 147.495 246.797C148.306 247.391 148.921 248.215 149.258 249.162C150.737 252.598 147.407 274.512 147.407 274.512L147.291 297.416L148.455 315.185L152.402 303.366C152.402 303.366 153.88 286.121 164.882 285.481C164.882 285.481 168.153 285.143 168.654 287.449C169.154 289.754 166.512 294.179 166.512 298.616C166.512 301.725 166.686 305.253 166.768 307.069C166.821 307.883 166.726 308.7 166.488 309.48C165.464 312.915 162.519 322.929 161.296 328.448C159.818 335.179 147.233 355.405 147.233 355.405C147.233 355.405 136.15 367.224 130.492 373.383C127.64 376.481 119.087 396.729 114.675 409.153" stroke="#263238" stroke-miterlimit="10"/>
<path d="M111.434 292.176C111.744 293.333 111.753 294.549 111.462 295.711C111.17 296.872 110.588 297.94 109.77 298.813" fill="white"/>
<path d="M111.434 292.176C111.744 293.333 111.753 294.549 111.462 295.711C111.17 296.872 110.588 297.94 109.77 298.813" stroke="#263238" stroke-miterlimit="10"/>
<path d="M92.6562 308.455C94.2512 305.975 95.8112 302.575 95.3804 299.663C94.5422 293.946 91.8879 287.367 93.1103 281.708C93.8554 278.098 94.6121 274.477 95.3572 270.867" fill="white"/>
<path d="M92.6562 308.455C94.2512 305.975 95.8112 302.575 95.3804 299.663C94.5422 293.946 91.8879 287.367 93.1103 281.708C93.8554 278.098 94.6121 274.477 95.3572 270.867" stroke="#263238" stroke-miterlimit="10"/>
<path d="M139.072 254.449C140.98 253.946 142.985 253.946 144.893 254.449C144.893 253.913 144.893 253.378 144.893 252.83" stroke="#263238" stroke-miterlimit="10"/>
<path d="M123.821 247.171C124.382 247.558 125.039 247.783 125.719 247.821C126.399 247.86 127.077 247.71 127.678 247.389C128.279 247.068 128.78 246.588 129.127 246.001C129.473 245.415 129.651 244.744 129.642 244.062" stroke="#263238" stroke-miterlimit="10"/>
<path d="M165.86 287.6C164.251 288.014 162.836 288.977 161.861 290.323C160.885 291.668 160.41 293.312 160.516 294.971L163.369 295.821" stroke="#263238" stroke-miterlimit="10"/>
<path d="M128.396 289.021C128.524 290.977 128.28 295.646 128.396 297.591V289.021Z" fill="white"/>
<path d="M128.396 289.021C128.524 290.977 128.28 295.646 128.396 297.591" stroke="#263238" stroke-miterlimit="10"/>
<path d="M130.539 291.722C130.306 294.928 130.069 298.13 129.828 301.329C129.828 300.921 129.828 300.514 129.828 300.106" fill="white"/>
<path d="M130.539 291.722C130.306 294.928 130.069 298.13 129.828 301.329C129.828 300.921 129.828 300.514 129.828 300.106" stroke="#263238" stroke-miterlimit="10"/>
<path d="M148.269 318.714C149.114 322.252 148.728 325.973 147.174 329.263L148.269 318.714Z" fill="white"/>
<path d="M148.269 318.714C149.114 322.252 148.728 325.973 147.174 329.263" stroke="#263238" stroke-miterlimit="10"/>
<path d="M118.792 301.934C116.254 304.717 116.627 311.389 118.419 315.069" stroke="#263238" stroke-miterlimit="10"/>
<path d="M137.547 306.522C137.561 309.65 136.459 312.681 134.438 315.069" stroke="#263238" stroke-miterlimit="10"/>
<path d="M100.305 303.262C99.8833 306.099 100.499 308.993 102.04 311.413" stroke="#263238" stroke-miterlimit="10"/>
<path d="M89.5009 311.96C89.3895 314.174 90.0205 316.363 91.2937 318.178" stroke="#263238" stroke-miterlimit="10"/>
<path d="M104.309 258.268C104.978 257.963 105.722 257.863 106.447 257.982C107.173 258.1 107.847 258.43 108.384 258.932L109.851 257.022" stroke="#263238" stroke-miterlimit="10"/>
<path d="M116.254 266.827C117.236 266.238 118.395 266.019 119.524 266.209C120.653 266.399 121.677 266.985 122.412 267.863" stroke="#263238" stroke-miterlimit="10"/>
<path d="M134.904 272.649C135.95 272.182 137.087 271.952 138.232 271.977C139.377 272.001 140.503 272.278 141.529 272.789" stroke="#263238" stroke-miterlimit="10"/>
<path d="M93.401 282.418C94.0207 281.382 94.9252 280.546 96.0068 280.009C97.0883 279.472 98.3013 279.258 99.5013 279.391" stroke="#263238" stroke-miterlimit="10"/>
<path d="M85.5898 293.55C85.6274 292.797 85.9216 292.078 86.4234 291.515C86.9253 290.952 87.6048 290.577 88.349 290.453" stroke="#263238" stroke-miterlimit="10"/>
<path d="M391.583 14.88L1 16.7197L6.9024 7.87011C8.29584 5.76481 10.1874 4.03619 12.4092 2.83772C14.631 1.63924 17.1143 1.00799 19.6386 1H373.038C375.325 0.998357 377.583 1.51014 379.647 2.49763C381.71 3.48512 383.525 4.92314 384.959 6.70569L391.583 14.88Z" fill="white" stroke="#263238" stroke-linecap="round" stroke-linejoin="round"/>
<path d="M203.079 73.439H181.681C159.724 73.439 141.924 91.2424 141.924 113.204V134.606C141.924 156.568 159.724 174.371 181.681 174.371H203.079C225.036 174.371 242.835 156.568 242.835 134.606V113.204C242.835 91.2424 225.036 73.439 203.079 73.439Z" fill="#757575" stroke="#263238" stroke-linecap="round" stroke-linejoin="round"/>
<path d="M160.26 132.44V146.786C160.26 148.948 161.118 151.021 162.647 152.55C164.175 154.078 166.248 154.937 168.409 154.937H217.619C219.77 154.937 221.834 154.086 223.361 152.57C224.888 151.054 225.753 148.996 225.768 146.844C225.838 140.382 226.176 132.44 226.176 132.44H160.26Z" fill="#999999" stroke="#263238" stroke-linecap="round" stroke-linejoin="round"/>
<path d="M340.359 137.226H52.5733C51.0931 137.229 49.6463 136.787 48.4212 135.956C47.196 135.125 46.2494 133.945 45.7046 132.568L1.31434 18.5828C1.045 17.8937 0.94808 17.1492 1.032 16.4141C1.11592 15.679 1.37813 14.9756 1.79585 14.3649C2.21356 13.7543 2.77411 13.255 3.42874 12.9105C4.08336 12.5659 4.81224 12.3866 5.55196 12.3881H387.404C388.138 12.396 388.86 12.5822 389.507 12.9307C390.154 13.2792 390.707 13.7796 391.118 14.3888C391.529 14.9981 391.786 15.698 391.867 16.4285C391.948 17.159 391.851 17.8983 391.583 18.5828L347.193 132.533C346.656 133.911 345.717 135.095 344.498 135.932C343.279 136.769 341.837 137.22 340.359 137.226Z" fill="white" stroke="#263238" stroke-linecap="round" stroke-linejoin="round"/>
<path d="M342.501 127.294H49.7441L9.46338 19.6075H382.595L342.501 127.294Z" fill="white"/>
<path d="M225.838 137.075H160.574V141.546H225.838V137.075Z" fill="#263238"/>
<path d="M299.741 122.682H93.0055C91.8413 122.682 90.7935 122.17 90.584 121.518L61.1767 28.0728C60.8507 27.0248 61.7705 26.1748 63.2373 26.1748H329.509C330.976 26.1748 331.896 27.0248 331.558 28.0728L302.162 121.518C301.941 122.158 300.87 122.682 299.741 122.682Z" fill="#38BFF2"/>
<path d="M297.669 120.552H95.101C94.7211 120.554 94.3508 120.433 94.0462 120.206C93.7416 119.979 93.5192 119.659 93.4129 119.294L69.4773 40.7418C69.3882 40.4741 69.3644 40.189 69.4078 39.9102C69.4513 39.6314 69.5607 39.3671 69.727 39.1392C69.8933 38.9113 70.1117 38.7265 70.364 38.6002C70.6162 38.4738 70.8949 38.4097 71.177 38.413H321.569C321.851 38.4097 322.13 38.4738 322.382 38.6002C322.635 38.7265 322.853 38.9113 323.019 39.1392C323.186 39.3671 323.295 39.6314 323.338 39.9102C323.382 40.189 323.358 40.4741 323.269 40.7418L299.357 119.294C299.249 119.658 299.026 119.977 298.722 120.203C298.417 120.43 298.048 120.552 297.669 120.552Z" fill="#263238"/>
<path d="M123.227 58.837H84.3784C83.4121 58.837 82.7834 59.3494 82.9697 60.0015C83.1576 60.3766 83.4526 60.6876 83.8174 60.8949C84.1821 61.1022 84.6002 61.1965 85.0186 61.1659H123.646C124.601 61.1659 125.276 60.6535 125.171 60.0015C125.067 59.3494 124.182 58.837 123.227 58.837Z" fill="white"/>
<path d="M124.519 65.9283H91.48C90.537 65.9283 89.92 66.429 90.083 67.0928C90.2609 67.4633 90.5455 67.7721 90.9002 67.9796C91.255 68.1871 91.6636 68.2838 92.0737 68.2572H124.985C125.928 68.2572 126.592 67.7565 126.487 67.0928C126.382 66.429 125.462 65.9283 124.519 65.9283Z" fill="white"/>
<path opacity="0.5" d="M125.777 72.7751H88.2905C87.3591 72.7751 86.7538 73.2526 86.9167 73.8464C87.104 74.202 87.3911 74.4951 87.7428 74.6895C88.0944 74.884 88.4952 74.9714 88.8958 74.941H126.15C127.069 74.941 127.733 74.4636 127.628 73.8697C127.523 73.2759 126.708 72.7751 125.777 72.7751Z" fill="white"/>
<path d="M126.988 79.3892H104.973C104.065 79.3892 103.436 79.8549 103.576 80.4255C103.716 80.9961 104.566 81.4618 105.474 81.4618H127.372C128.28 81.4618 128.932 80.9961 128.827 80.4255C128.722 79.8549 127.907 79.3892 126.988 79.3892Z" fill="white"/>
<path d="M128.164 85.7703H91.9344C91.0496 85.7703 90.4442 86.2244 90.6072 86.7717C90.7702 87.3189 91.6084 87.7731 92.5048 87.7731H128.594C129.479 87.7731 130.12 87.3306 130.026 86.7717C129.933 86.2127 129.06 85.7703 128.164 85.7703Z" fill="white"/>
<path d="M129.293 91.9534H100.048C99.1636 91.9534 98.5699 92.3842 98.7096 92.9198C98.8493 93.4555 99.6758 93.8863 100.549 93.8863H129.654C130.527 93.8863 131.155 93.4555 131.062 92.9198C130.969 92.3842 130.177 91.9534 129.293 91.9534Z" fill="white"/>
<path d="M130.387 97.9268H101.62C100.747 97.9268 100.165 98.346 100.305 98.8583C100.445 99.3707 101.248 99.8015 102.109 99.8015H130.737C131.598 99.8015 132.215 99.3823 132.122 98.8583C132.029 98.3343 131.26 97.9268 130.387 97.9268Z" fill="white"/>
<path d="M131.447 103.702H100.014C99.1638 103.702 98.5817 104.11 98.7214 104.611C98.8611 105.111 99.6527 105.519 100.503 105.519H131.738C132.587 105.519 133.204 105.111 133.111 104.611C133.018 104.11 132.308 103.702 131.447 103.702Z" fill="white"/>
<path opacity="0.5" d="M132.482 109.303H112.179C111.341 109.303 110.759 109.699 110.875 110.188C110.992 110.677 111.772 111.061 112.598 111.061H132.773C133.612 111.061 134.217 110.666 134.136 110.188C134.054 109.711 133.321 109.303 132.482 109.303Z" fill="white"/>
<path opacity="0.5" d="M121.877 51.4778H92.9241C91.9462 51.4778 91.2942 52.0134 91.4688 52.6422C91.6563 53.0204 91.9529 53.3335 92.3203 53.5411C92.6877 53.7487 93.1089 53.8412 93.5294 53.8067H122.308C123.286 53.8067 123.973 53.271 123.856 52.6422C123.694 52.262 123.415 51.9437 123.058 51.7342C122.702 51.5246 122.288 51.4347 121.877 51.4778Z" fill="white"/>
<path d="M120.469 43.8508H80.1646C79.175 43.8508 78.5231 44.3981 78.721 45.0851C78.9158 45.4798 79.2234 45.8077 79.6047 46.0275C79.986 46.2472 80.424 46.3488 80.8631 46.3194H120.934C121.912 46.3194 122.622 45.7721 122.494 45.0851C122.366 44.3981 121.493 43.8508 120.469 43.8508Z" fill="white"/>
<path d="M133.472 114.729H100.072C99.2454 114.729 98.6866 115.114 98.8146 115.58C98.9427 116.045 99.7227 116.43 100.549 116.43H133.787C134.602 116.43 135.207 116.045 135.125 115.58C135.044 115.114 134.299 114.729 133.472 114.729Z" fill="white"/>
<path opacity="0.5" d="M136.872 61.422H144.404L144.032 58.5459H136.441L136.872 61.422Z" fill="white"/>
<path opacity="0.5" d="M137.92 68.4203H145.324L144.963 65.6489H137.5L137.92 68.4203Z" fill="white"/>
<path opacity="0.5" d="M138.932 75.1855H146.209L145.859 72.5073H138.537L138.932 75.1855Z" fill="white"/>
<path opacity="0.5" d="M139.922 81.718H147.07L146.721 79.1213H139.526L139.922 81.718Z" fill="white"/>
<path opacity="0.5" d="M140.865 88.0175H147.897L147.559 85.5256H140.492L140.865 88.0175Z" fill="white"/>
<path opacity="0.5" d="M141.785 94.1191H148.688L148.374 91.7087H141.412L141.785 94.1191Z" fill="white"/>
<path opacity="0.5" d="M142.67 100.034H149.469L149.166 97.6823H142.32L142.67 100.034Z" fill="white"/>
<path opacity="0.5" d="M143.519 105.74H150.213L149.922 103.481H143.181L143.519 105.74Z" fill="white"/>
<path opacity="0.5" d="M144.357 111.283H150.947L150.656 109.082H144.031L144.357 111.283Z" fill="white"/>
<path opacity="0.5" d="M135.777 54.1676H143.449L143.065 51.175H135.335L135.777 54.1676Z" fill="white"/>
<path opacity="0.5" d="M134.648 46.6339H142.46L142.064 43.5365H134.182L134.648 46.6339Z" fill="white"/>
<path opacity="0.5" d="M145.161 116.639H151.645L151.366 114.508H144.846L145.161 116.639Z" fill="white"/>
<path d="M184.871 104.611C184.871 104.11 185.523 103.702 186.373 103.702H297.925C298.774 103.702 299.356 104.11 299.205 104.611C299.022 104.916 298.757 105.163 298.44 105.324C298.123 105.484 297.766 105.552 297.412 105.519H186.431C185.581 105.519 184.882 105.111 184.871 104.611Z" fill="white"/>
<path d="M299.054 99.8015H237.283C236.421 99.8015 235.769 99.3823 235.827 98.8583C235.886 98.3343 236.631 97.9268 237.504 97.9268H299.613C300.474 97.9268 301.057 98.346 300.905 98.8583C300.722 99.1785 300.449 99.4382 300.12 99.6057C299.791 99.7733 299.421 99.8413 299.054 99.8015Z" fill="white"/>
<path opacity="0.5" d="M222.625 99.8015H203.416C202.555 99.8015 201.856 99.3823 201.868 98.8583C201.879 98.3343 202.578 97.9268 203.451 97.9268H222.776C223.638 97.9268 224.313 98.346 224.267 98.8583C224.22 99.3707 223.487 99.8015 222.625 99.8015Z" fill="white"/>
<path d="M262.719 93.8863H175.592C174.719 93.8863 173.986 93.4555 173.951 92.9198C173.916 92.3842 174.603 91.9534 175.487 91.9534H263.08C263.954 91.9534 264.594 92.3842 264.489 92.9198C264.384 93.4555 263.604 93.8863 262.719 93.8863Z" fill="white"/>
<path opacity="0.5" d="M157.385 91.9534H163.59C164.463 91.9534 165.22 92.3842 165.266 92.9198C165.313 93.4555 164.638 93.8863 163.764 93.8863H157.583C156.709 93.8863 155.953 93.4555 155.895 92.9198C155.836 92.3842 156.5 91.9534 157.385 91.9534Z" fill="white"/>
<path d="M275.328 86.7717C275.211 87.3306 274.396 87.7731 273.5 87.7731H191.402C190.505 87.7731 189.784 87.3306 189.772 86.7717C189.76 86.2127 190.482 85.7703 191.367 85.7703H273.919C274.816 85.7703 275.444 86.2244 275.328 86.7717Z" fill="white"/>
<path d="M156.721 85.7703H180.005C180.901 85.7703 181.646 86.2244 181.67 86.7717C181.693 87.3189 180.983 87.7731 180.098 87.7731H156.931C156.046 87.7731 155.278 87.3306 155.208 86.7717C155.138 86.2127 155.825 85.7703 156.721 85.7703Z" fill="white"/>
<path d="M156.034 79.3892H245.606C246.514 79.3892 247.19 79.8549 247.108 80.4255C247.027 80.9961 246.235 81.4618 245.327 81.4618H156.255C155.359 81.4618 154.567 80.9961 154.509 80.4255C154.451 79.8549 155.126 79.3892 156.034 79.3892Z" fill="white"/>
<path d="M214.185 74.941C213.265 74.941 212.544 74.4636 212.567 73.8697C212.59 73.2759 213.358 72.7985 214.29 72.7985H261.544C262.475 72.7985 263.139 73.2759 263.034 73.8697C262.929 74.4636 262.103 74.941 261.183 74.941H214.185Z" fill="white"/>
<path d="M155.336 72.7751H196.233C197.165 72.7751 197.91 73.2526 197.91 73.8464C197.91 74.4403 197.165 74.941 196.233 74.941H155.568C154.637 74.941 153.845 74.4636 153.776 73.8697C153.706 73.2759 154.404 72.7751 155.336 72.7751Z" fill="white"/>
<path d="M308.134 68.1523H195.546C194.615 68.1523 193.847 67.6516 193.847 66.9879C193.847 66.3242 194.603 65.8235 195.546 65.8235H308.763C309.706 65.8235 310.323 66.3242 310.148 66.9879C309.964 67.3583 309.675 67.6662 309.317 67.8733C308.958 68.0804 308.547 68.1774 308.134 68.1523Z" fill="white"/>
<path d="M310.09 61.131H211.135C210.18 61.131 209.424 60.6186 209.447 59.9665C209.47 59.3145 210.262 58.8021 211.228 58.8021H310.859C311.813 58.8021 312.442 59.3145 312.256 59.9665C312.058 60.3595 311.744 60.6821 311.357 60.8904C310.969 61.0987 310.527 61.1827 310.09 61.131Z" fill="white"/>
<path opacity="0.5" d="M312.232 53.8649H291.463C290.486 53.8649 289.822 53.3293 289.973 52.7005C290.155 52.3201 290.449 52.0046 290.815 51.7964C291.181 51.5882 291.603 51.4973 292.022 51.5361H312.884C313.862 51.5361 314.503 52.0717 314.305 52.7005C314.108 53.0736 313.808 53.382 313.44 53.5886C313.073 53.7952 312.653 53.8911 312.232 53.8649Z" fill="white"/>
<path d="M276.969 53.865H200.797C199.831 53.865 199.039 53.3294 199.051 52.7006C199.062 52.0718 199.842 51.5361 200.82 51.5361H277.493C278.471 51.5361 279.158 52.0718 279.018 52.7006C278.844 53.0864 278.551 53.407 278.183 53.6162C277.815 53.8254 277.39 53.9125 276.969 53.865Z" fill="white"/>
<path d="M159.224 109.303H229.576C230.414 109.303 231.054 109.699 230.996 110.188C230.938 110.677 230.239 111.061 229.401 111.061H159.422C158.584 111.061 157.862 110.666 157.815 110.188C157.769 109.711 158.386 109.303 159.224 109.303Z" fill="white"/>
<path d="M159.806 114.729H267.889C268.704 114.729 269.298 115.114 269.193 115.58C269.088 116.045 268.355 116.43 267.528 116.43H159.992C159.166 116.43 158.456 116.045 158.409 115.58C158.363 115.114 158.98 114.729 159.806 114.729Z" fill="white"/>
<path d="M273.186 46.3194H218.12C217.131 46.3194 216.362 45.7721 216.397 45.0851C216.432 44.3981 217.259 43.8508 218.26 43.8508H273.652C274.653 43.8508 275.351 44.3981 275.223 45.0851C275.059 45.4808 274.773 45.8138 274.407 46.0358C274.04 46.2578 273.613 46.3571 273.186 46.3194Z" fill="white"/>
<path opacity="0.5" d="M202.566 46.3194H152.507C151.517 46.3194 150.655 45.7721 150.574 45.0851C150.492 44.3981 151.238 43.8508 152.239 43.8508H202.59C203.579 43.8508 204.382 44.3981 204.371 45.0851C204.359 45.7721 203.556 46.3194 202.566 46.3194Z" fill="white"/>
<path opacity="0.5" d="M245.176 109.303C246.014 109.303 246.643 109.699 246.573 110.188C246.503 110.677 245.769 111.061 244.931 111.061H239.495C238.668 111.061 238.039 110.666 238.097 110.188C238.156 109.711 238.877 109.303 239.716 109.303H245.176Z" fill="white"/>
<path opacity="0.5" d="M178.456 104.611C178.456 105.111 177.816 105.519 176.966 105.519H169.562C168.712 105.519 167.99 105.111 167.955 104.611C167.921 104.11 168.572 103.702 169.422 103.702H176.861C177.723 103.702 178.433 104.11 178.456 104.611Z" fill="white"/>
<path opacity="0.5" d="M267.807 80.4255C267.702 80.9961 266.888 81.4618 265.979 81.4618H257.318C256.41 81.4618 255.758 80.9961 255.839 80.4255C255.921 79.8549 256.747 79.3892 257.656 79.3892H266.364C267.272 79.3892 267.924 79.8549 267.807 80.4255Z" fill="white"/>
<path opacity="0.5" d="M294.828 85.7702C295.725 85.7702 296.33 86.2243 296.179 86.7716C295.999 87.1044 295.726 87.377 295.393 87.5551C295.059 87.7333 294.681 87.809 294.304 87.773H287.401C286.504 87.773 285.899 87.3305 286.027 86.7716C286.203 86.4386 286.474 86.1656 286.806 85.9873C287.138 85.809 287.515 85.7334 287.89 85.7702H294.828Z" fill="white"/>
<path opacity="0.5" d="M181.914 68.1523C180.982 68.1523 180.202 67.6516 180.168 66.9879C180.133 66.3242 180.889 65.8235 181.832 65.8235H189.178C190.121 65.8235 190.89 66.3242 190.901 66.9879C190.913 67.6516 190.156 68.1523 189.225 68.1523H181.914Z" fill="white"/>
<path d="M81.9105 32.2998C82.0738 32.6892 82.1351 33.1138 82.0885 33.5335C82.0419 33.9532 81.889 34.3541 81.6441 34.6981C81.3993 35.0421 81.0707 35.3179 80.6895 35.4993C80.3082 35.6807 79.887 35.7618 79.4657 35.7349C78.4485 35.6756 77.4712 35.3183 76.6556 34.7075C75.84 34.0967 75.222 33.2594 74.8788 32.2998C74.7067 31.9095 74.6377 31.4815 74.6783 31.0569C74.719 30.6322 74.8679 30.2251 75.111 29.8745C75.354 29.524 75.6829 29.2417 76.0662 29.0547C76.4496 28.8677 76.8745 28.7822 77.3003 28.8065C78.3302 28.8597 79.3205 29.2211 80.1425 29.844C80.9646 30.4669 81.5805 31.3225 81.9105 32.2998Z" fill="white"/>
<path d="M91.3406 32.358C91.487 32.7567 91.5314 33.1857 91.47 33.606C91.4085 34.0263 91.243 34.4246 90.9886 34.7647C90.7341 35.1048 90.3988 35.3759 90.013 35.5534C89.6272 35.731 89.2032 35.8094 88.7794 35.7814C87.7751 35.7313 86.8098 35.3771 86.0114 34.7657C85.213 34.1543 84.6193 33.3146 84.309 32.358C84.155 31.9574 84.1036 31.5247 84.1595 31.0992C84.2154 30.6736 84.3768 30.2689 84.6291 29.9217C84.8813 29.5745 85.2163 29.2959 85.6037 29.1113C85.991 28.9267 86.4184 28.8419 86.8469 28.8647C87.8648 28.9118 88.8432 29.2729 89.6478 29.8983C90.4524 30.5238 91.0437 31.383 91.3406 32.358Z" fill="white"/>
<path d="M100.922 32.2998C101.052 32.7115 101.08 33.1489 101.002 33.5738C100.924 33.9987 100.744 34.3981 100.476 34.737C100.209 35.076 99.862 35.3441 99.4668 35.5181C99.0715 35.692 98.6396 35.7665 98.209 35.7349C97.2139 35.6895 96.258 35.3339 95.4751 34.7179C94.6922 34.1019 94.1217 33.2564 93.8433 32.2998C93.7062 31.8896 93.6713 31.4522 93.7417 31.0255C93.8122 30.5988 93.9857 30.1958 94.2474 29.8514C94.509 29.5071 94.8507 29.2319 95.2429 29.0498C95.6351 28.8677 96.0658 28.7842 96.4976 28.8065C97.5123 28.8364 98.4904 29.1923 99.2871 29.8214C100.084 30.4506 100.657 31.3196 100.922 32.2998Z" fill="white"/>
<path d="M92.7256 174.034H68.173C66.6292 174.034 65.1486 174.647 64.057 175.739C62.9653 176.831 62.3521 178.312 62.3521 179.856V191.814C62.3521 193.359 62.9653 194.839 64.057 195.931C65.1486 197.023 66.6292 197.637 68.173 197.637H74.5876L79.4539 208.664L86.3109 197.637H92.7256C94.2694 197.637 95.7499 197.023 96.8416 195.931C97.9332 194.839 98.5465 193.359 98.5465 191.814V179.809C98.5342 178.273 97.9155 176.804 96.8252 175.722C95.7349 174.641 94.2613 174.034 92.7256 174.034Z" fill="white" stroke="#263238" stroke-linecap="round" stroke-linejoin="round"/>
<path d="M77.0326 180.904C77.0326 180.595 77.1552 180.299 77.3736 180.08C77.5919 179.862 77.888 179.739 78.1968 179.739C78.4919 179.739 78.7763 179.85 78.9925 180.051C79.2086 180.252 79.3403 180.528 79.361 180.822C79.361 181.131 79.2383 181.427 79.02 181.646C78.8017 181.864 78.5055 181.987 78.1968 181.987C77.9016 181.987 77.6172 181.876 77.4011 181.675C77.185 181.474 77.0533 181.198 77.0326 180.904ZM77.2887 183.337H79.1631V191.325H77.2538L77.2887 183.337Z" fill="#263238"/>
<path d="M83.6685 182.895V183.372H85.8688V184.874H83.7383V191.302H81.9106V184.874H80.5485V183.372H81.9106V182.86C81.8807 182.482 81.9348 182.102 82.069 181.747C82.2031 181.392 82.414 181.072 82.6866 180.808C82.9591 180.544 83.2866 180.344 83.6455 180.222C84.0044 180.099 84.386 180.058 84.7628 180.1C85.3597 180.07 85.9519 180.22 86.4625 180.531L85.9386 181.94C85.6336 181.73 85.2727 181.617 84.9025 181.614C84.0759 181.614 83.6685 182.068 83.6685 182.895Z" fill="#263238"/>
<path d="M167.49 175.71H142.925C141.382 175.71 139.901 176.324 138.809 177.416C137.718 178.508 137.104 179.988 137.104 181.533V193.48C137.104 195.024 137.718 196.505 138.809 197.596C139.901 198.688 141.382 199.302 142.925 199.302H149.352L154.206 210.329L161.063 199.302H167.49C169.033 199.302 170.514 198.688 171.606 197.596C172.697 196.505 173.311 195.024 173.311 193.48V181.486C173.298 179.95 172.68 178.481 171.589 177.399C170.499 176.317 169.025 175.71 167.49 175.71Z" fill="white" stroke="#263238" stroke-linecap="round" stroke-linejoin="round"/>
<path d="M148.095 189.579H141.82C141.943 190.161 142.275 190.678 142.753 191.032C143.232 191.386 143.823 191.553 144.416 191.5C144.818 191.515 145.219 191.445 145.592 191.294C145.965 191.144 146.302 190.916 146.581 190.627L147.583 191.791C146.978 192.392 146.214 192.809 145.382 192.991C144.549 193.173 143.681 193.114 142.881 192.821C142.08 192.528 141.38 192.012 140.862 191.335C140.344 190.657 140.03 189.846 139.957 188.997C139.941 188.452 140.036 187.911 140.238 187.405C140.44 186.899 140.744 186.441 141.13 186.058C141.517 185.674 141.978 185.374 142.485 185.177C142.992 184.979 143.534 184.888 144.078 184.909C144.623 184.887 145.166 184.979 145.672 185.181C146.179 185.382 146.637 185.687 147.018 186.077C147.399 186.467 147.694 186.932 147.883 187.443C148.073 187.954 148.153 188.499 148.118 189.043C148.118 189.171 148.106 189.404 148.095 189.579ZM141.808 188.344H146.337C146.281 187.792 146.016 187.281 145.596 186.918C145.176 186.554 144.633 186.365 144.078 186.388C143.523 186.367 142.98 186.557 142.559 186.92C142.138 187.283 141.87 187.792 141.808 188.344Z" fill="#263238"/>
<path d="M149.911 181.882H151.762V192.979H149.888L149.911 181.882Z" fill="#263238"/>
<path d="M153.322 192.187L154.032 190.767C154.869 191.28 155.832 191.553 156.814 191.558C157.978 191.558 158.491 191.232 158.491 190.673C158.491 189.148 153.554 190.58 153.554 187.401C153.554 185.888 154.916 184.898 157.047 184.898C158.085 184.881 159.112 185.117 160.039 185.585L159.317 187.005C158.611 186.595 157.805 186.39 156.989 186.412C155.825 186.412 155.312 186.784 155.312 187.308C155.312 188.927 160.248 187.483 160.248 190.615C160.248 192.106 158.875 193.084 156.628 193.084C155.465 193.091 154.322 192.781 153.322 192.187Z" fill="#263238"/>
<path d="M169.411 189.579H163.136C163.259 190.161 163.591 190.678 164.069 191.032C164.548 191.386 165.139 191.553 165.732 191.5C166.134 191.515 166.534 191.445 166.908 191.294C167.281 191.144 167.618 190.916 167.897 190.627L168.898 191.791C168.294 192.392 167.53 192.809 166.697 192.991C165.865 193.173 164.997 193.114 164.197 192.821C163.396 192.528 162.696 192.012 162.178 191.335C161.66 190.657 161.346 189.846 161.273 188.997C161.257 188.452 161.352 187.911 161.554 187.405C161.756 186.899 162.059 186.441 162.446 186.058C162.832 185.674 163.294 185.374 163.801 185.177C164.308 184.979 164.85 184.888 165.394 184.909C165.939 184.887 166.482 184.979 166.988 185.181C167.495 185.382 167.953 185.687 168.334 186.077C168.715 186.467 169.01 186.932 169.199 187.443C169.389 187.954 169.469 188.499 169.434 189.043C169.434 189.171 169.422 189.404 169.411 189.579ZM163.124 188.344H167.653C167.597 187.792 167.332 187.281 166.912 186.918C166.492 186.554 165.949 186.365 165.394 186.388C164.839 186.367 164.296 186.557 163.875 186.92C163.454 187.283 163.185 187.792 163.124 188.344Z" fill="#263238"/>
<path d="M239.972 175H215.408C213.864 175 212.383 175.614 211.292 176.705C210.2 177.797 209.587 179.278 209.587 180.822V192.781C209.587 194.325 210.2 195.806 211.292 196.898C212.383 197.99 213.864 198.603 215.408 198.603H221.834L226.689 209.63L233.546 198.603H239.972C241.516 198.603 242.996 197.99 244.088 196.898C245.179 195.806 245.793 194.325 245.793 192.781V180.776C245.78 179.24 245.162 177.771 244.071 176.689C242.981 175.607 241.508 175 239.972 175Z" fill="white" stroke="#263238" stroke-linecap="round" stroke-linejoin="round"/>
<path d="M221.042 183.861V184.397H223.242V185.899H221.1V192.327H219.284V185.899H217.969V184.397H219.284V183.885C219.254 183.507 219.308 183.127 219.443 182.772C219.577 182.417 219.788 182.096 220.06 181.833C220.333 181.569 220.66 181.369 221.019 181.246C221.378 181.124 221.76 181.083 222.136 181.125C222.73 181.096 223.318 181.246 223.824 181.556L223.301 182.965C223.002 182.75 222.644 182.632 222.276 182.627C221.45 182.569 221.042 183.011 221.042 183.861Z" fill="#263238"/>
<path d="M223.72 188.275C223.687 187.425 223.909 186.585 224.358 185.863C224.806 185.141 225.461 184.569 226.237 184.222C227.012 183.874 227.874 183.767 228.712 183.914C229.549 184.06 230.323 184.454 230.935 185.044C231.547 185.634 231.969 186.394 232.145 187.226C232.322 188.057 232.246 188.923 231.927 189.711C231.608 190.499 231.061 191.174 230.355 191.648C229.65 192.122 228.819 192.375 227.969 192.373C227.415 192.406 226.861 192.323 226.341 192.13C225.821 191.938 225.346 191.64 224.947 191.255C224.548 190.87 224.233 190.406 224.021 189.893C223.81 189.38 223.707 188.829 223.72 188.275ZM230.344 188.275C230.312 187.822 230.149 187.389 229.875 187.028C229.6 186.667 229.227 186.394 228.799 186.243C228.372 186.091 227.91 186.068 227.47 186.175C227.029 186.283 226.63 186.516 226.32 186.848C226.011 187.179 225.804 187.593 225.727 188.04C225.65 188.487 225.704 188.946 225.884 189.363C226.064 189.779 226.362 190.133 226.74 190.383C227.119 190.632 227.562 190.765 228.016 190.767C228.335 190.767 228.652 190.702 228.946 190.575C229.24 190.448 229.504 190.262 229.722 190.028C229.941 189.794 230.109 189.518 230.216 189.216C230.323 188.914 230.366 188.594 230.344 188.275Z" fill="#263238"/>
<path d="M238.633 184.187V185.969C238.489 185.959 238.345 185.959 238.202 185.969C237.877 185.943 237.551 185.991 237.247 186.108C236.944 186.225 236.67 186.409 236.446 186.645C236.223 186.882 236.056 187.166 235.956 187.476C235.857 187.787 235.829 188.115 235.873 188.438V192.315H233.999V184.281H235.78V185.445C236.106 185.006 236.54 184.66 237.04 184.439C237.54 184.219 238.089 184.132 238.633 184.187Z" fill="#263238"/>
<path d="M311.406 174.034H286.807C285.263 174.034 283.782 174.647 282.691 175.739C281.599 176.831 280.986 178.312 280.986 179.856V191.814C280.986 193.359 281.599 194.839 282.691 195.931C283.782 197.023 285.263 197.637 286.807 197.637H293.233L298.088 208.664L304.945 197.637H311.371C312.915 197.637 314.395 197.023 315.487 195.931C316.579 194.839 317.192 193.359 317.192 191.814V179.809C317.18 178.279 316.566 176.816 315.483 175.735C314.4 174.654 312.936 174.043 311.406 174.034Z" fill="white" stroke="#263238" stroke-linecap="round" stroke-linejoin="round"/>
<path d="M295.934 182.918H302.826V184.397H295.934V182.918ZM295.934 186.54H302.826V188.042H295.934V186.54Z" fill="#263238"/>
<path d="M130.166 160.212H105.601C104.058 160.212 102.577 160.825 101.485 161.917C100.394 163.009 99.7805 164.49 99.7805 166.034V177.981C99.7805 179.525 100.394 181.006 101.485 182.098C102.577 183.19 104.058 183.803 105.601 183.803H112.028L116.882 194.83L123.739 183.803H130.166C131.709 183.803 133.19 183.19 134.282 182.098C135.373 181.006 135.987 179.525 135.987 177.981V165.987C135.974 164.451 135.356 162.982 134.265 161.901C133.175 160.819 131.701 160.212 130.166 160.212Z" fill="white" stroke="#263238" stroke-linecap="round" stroke-linejoin="round"/>
<path d="M112.109 165.172H115.672V166.674H113.972V177.678H115.672V179.18H112.109V165.172Z" fill="#263238"/>
<path d="M120.329 179.18V177.678H122.017V166.674H120.329V165.172H123.821V179.145L120.329 179.18Z" fill="#263238"/>
<path d="M203.184 158.989H178.619C177.076 158.989 175.595 159.603 174.503 160.695C173.412 161.786 172.799 163.267 172.799 164.811V176.712C172.799 178.256 173.412 179.737 174.503 180.829C175.595 181.921 177.076 182.534 178.619 182.534H185.046L189.912 193.561L196.769 182.534H203.184C204.728 182.534 206.208 181.921 207.3 180.829C208.391 179.737 209.005 178.256 209.005 176.712V164.765C208.992 163.229 208.374 161.76 207.283 160.678C206.193 159.596 204.719 158.989 203.184 158.989Z" fill="white" stroke="#263238" stroke-linecap="round" stroke-linejoin="round"/>
<path d="M185.907 170.901C186.501 171.099 186.792 171.507 186.792 172.427V175.28C186.765 175.433 186.775 175.591 186.82 175.74C186.866 175.89 186.945 176.026 187.052 176.14C187.16 176.253 187.292 176.339 187.439 176.392C187.586 176.445 187.743 176.463 187.898 176.444H188.212V177.946H187.455C187.119 177.996 186.775 177.969 186.45 177.865C186.126 177.761 185.83 177.584 185.585 177.348C185.339 177.112 185.152 176.823 185.036 176.502C184.92 176.182 184.88 175.839 184.917 175.501V172.427C184.917 171.926 184.661 171.705 184.242 171.705H183.753V170.179H184.242C184.661 170.179 184.917 169.958 184.917 169.458V166.372C184.879 166.034 184.92 165.691 185.035 165.372C185.151 165.052 185.339 164.763 185.585 164.527C185.83 164.292 186.127 164.116 186.451 164.014C186.776 163.912 187.119 163.886 187.455 163.938H188.212V165.44H187.851C187.696 165.419 187.538 165.435 187.39 165.487C187.242 165.539 187.108 165.626 187 165.739C186.892 165.853 186.813 165.991 186.768 166.141C186.724 166.292 186.716 166.451 186.745 166.605V169.446C186.792 170.308 186.501 170.715 185.907 170.901Z" fill="#263238"/>
<path d="M197.316 170.144V171.67H196.804C196.396 171.67 196.14 171.891 196.14 172.392V175.466C196.176 175.805 196.133 176.148 196.016 176.468C195.899 176.788 195.71 177.077 195.464 177.313C195.218 177.549 194.921 177.726 194.597 177.829C194.272 177.933 193.928 177.961 193.591 177.911H192.834V176.409H193.148C193.307 176.435 193.47 176.423 193.623 176.374C193.776 176.325 193.915 176.24 194.029 176.126C194.143 176.012 194.228 175.873 194.277 175.719C194.327 175.566 194.339 175.403 194.312 175.245V172.392C194.312 171.472 194.58 171.064 195.174 170.866C194.58 170.68 194.312 170.273 194.312 169.341V166.5C194.341 166.341 194.331 166.177 194.283 166.022C194.235 165.868 194.15 165.727 194.035 165.613C193.921 165.498 193.78 165.413 193.626 165.365C193.471 165.316 193.307 165.306 193.148 165.335H192.834V163.903H193.591C193.927 163.851 194.271 163.877 194.596 163.98C194.921 164.082 195.218 164.257 195.464 164.492C195.711 164.727 195.9 165.016 196.017 165.336C196.134 165.656 196.176 165.998 196.14 166.337V169.422C196.14 169.923 196.396 170.144 196.804 170.144H197.316Z" fill="#263238"/>
<path d="M275.433 156.567H250.869C249.325 156.567 247.844 157.181 246.753 158.273C245.661 159.364 245.048 160.845 245.048 162.389V174.336C245.048 175.881 245.661 177.361 246.753 178.453C247.844 179.545 249.325 180.159 250.869 180.159H257.283L262.15 191.186L269.007 180.159H275.433C276.977 180.159 278.457 179.545 279.549 178.453C280.64 177.361 281.254 175.881 281.254 174.336V162.343C281.241 160.807 280.623 159.338 279.532 158.256C278.442 157.174 276.969 156.567 275.433 156.567Z" fill="white" stroke="#263238" stroke-linecap="round" stroke-linejoin="round"/>
<path d="M262.173 165.405C262.156 165.234 262.175 165.061 262.23 164.898C262.284 164.734 262.371 164.584 262.487 164.456C262.603 164.329 262.744 164.227 262.901 164.157C263.059 164.087 263.229 164.051 263.401 164.051C263.573 164.051 263.743 164.087 263.901 164.157C264.058 164.227 264.199 164.329 264.315 164.456C264.431 164.584 264.518 164.734 264.572 164.898C264.627 165.061 264.646 165.234 264.629 165.405C264.646 165.577 264.627 165.75 264.572 165.913C264.518 166.077 264.431 166.227 264.315 166.354C264.199 166.482 264.058 166.584 263.901 166.654C263.743 166.723 263.573 166.759 263.401 166.759C263.229 166.759 263.059 166.723 262.901 166.654C262.744 166.584 262.603 166.482 262.487 166.354C262.371 166.227 262.284 166.077 262.23 165.913C262.175 165.75 262.156 165.577 262.173 165.405ZM264.629 171.111C264.597 171.557 264.479 171.992 264.28 172.392L263.512 174.511H262.347L262.953 172.182C262.737 172.091 262.553 171.936 262.427 171.739C262.3 171.542 262.236 171.311 262.243 171.076C262.243 170.753 262.371 170.444 262.599 170.216C262.827 169.987 263.137 169.859 263.459 169.859C263.782 169.859 264.091 169.987 264.319 170.216C264.548 170.444 264.676 170.753 264.676 171.076L264.629 171.111Z" fill="#263238"/>
<path d="M179.411 365.512H203.963C205.507 365.512 206.988 364.898 208.079 363.807C209.171 362.715 209.784 361.234 209.784 359.69V347.778C209.769 346.244 209.149 344.778 208.059 343.698C206.969 342.619 205.497 342.014 203.963 342.014H197.549L195.674 330.987L185.825 342.014H179.411C177.877 342.014 176.405 342.619 175.315 343.698C174.225 344.778 173.605 346.244 173.59 347.778V359.736C173.602 361.272 174.221 362.741 175.311 363.823C176.401 364.905 177.875 365.512 179.411 365.512Z" fill="white" stroke="#263238" stroke-linecap="round" stroke-linejoin="round"/>
<path d="M188.037 351.306L182.88 353.239L188.037 355.172V356.732L181.146 354.054V352.424L188.037 349.745V351.306Z" fill="#263238"/>
<path d="M193.486 345.868H195.151L190.18 359.969H188.55L193.486 345.868Z" fill="#263238"/>
<path d="M202.404 352.424V354.042L195.512 356.72V355.16L200.657 353.239L195.5 351.317V349.745L202.404 352.424Z" fill="#263238"/>
<path d="M23.2704 278.471H47.823C49.3668 278.471 50.8474 277.858 51.939 276.766C53.0306 275.674 53.6439 274.193 53.6439 272.649V260.748C53.6439 259.204 53.0306 257.723 51.939 256.632C50.8474 255.54 49.3668 254.926 47.823 254.926H41.4083L42.8054 243.899L29.685 254.926H23.2704C21.7266 254.926 20.246 255.54 19.1544 256.632C18.0627 257.723 17.4495 259.204 17.4495 260.748V272.695C17.4617 274.231 18.0804 275.7 19.1707 276.782C20.261 277.864 21.7346 278.471 23.2704 278.471Z" fill="white" stroke="#263238" stroke-linecap="round" stroke-linejoin="round"/>
<path d="M30.5469 270.891C30.5469 270.582 30.6695 270.286 30.8879 270.067C31.1062 269.849 31.4023 269.726 31.7111 269.726C32.0198 269.726 32.3159 269.849 32.5343 270.067C32.7526 270.286 32.8752 270.582 32.8752 270.891C32.8752 271.199 32.7526 271.496 32.5343 271.714C32.3159 271.932 32.0198 272.055 31.7111 272.055C31.4023 272.055 31.1062 271.932 30.8879 271.714C30.6695 271.496 30.5469 271.199 30.5469 270.891ZM30.6866 261.482H32.8985L32.526 268.469H31.0125L30.6866 261.482Z" fill="#263238"/>
<path d="M34.7961 264.16H41.6881V265.662H34.7961V264.16ZM34.7961 267.782H41.6881V269.284H34.7961V267.782Z" fill="#263238"/>
</svg>
